<svg xmlns="http://www.w3.org/2000/svg" xmlns:xlink="http://www.w3.org/1999/xlink" width="308" zoomAndPan="magnify" viewBox="0 0 230.87999 231" height="308" preserveAspectRatio="xMidYMid meet" version="1.0"><defs><clipPath id="3d9d9e6536"><path d="M 0 0.0585938 L 230.128906 0.0585938 L 230.128906 230.191406 L 0 230.191406 Z M 0 0.0585938 " clip-rule="nonzero"/></clipPath><clipPath id="356f0f29ba"><path d="M 100 0.0585938 L 229 0.0585938 L 229 199 L 100 199 Z M 100 0.0585938 " clip-rule="nonzero"/></clipPath></defs><g clip-path="url(#3d9d9e6536)"><path fill="#000000" d="M 230.042969 115.195312 C 230.042969 117.074219 229.996094 118.957031 229.902344 120.832031 C 229.808594 122.710938 229.671875 124.585938 229.488281 126.457031 C 229.304688 128.328125 229.074219 130.195312 228.796875 132.054688 C 228.519531 133.914062 228.199219 135.769531 227.832031 137.613281 C 227.464844 139.457031 227.054688 141.292969 226.597656 143.117188 C 226.140625 144.9375 225.640625 146.75 225.09375 148.550781 C 224.546875 150.351562 223.957031 152.136719 223.324219 153.90625 C 222.691406 155.675781 222.015625 157.429688 221.292969 159.167969 C 220.574219 160.90625 219.8125 162.625 219.007812 164.324219 C 218.203125 166.023438 217.359375 167.703125 216.472656 169.363281 C 215.585938 171.019531 214.660156 172.65625 213.691406 174.269531 C 212.726562 175.882812 211.722656 177.46875 210.675781 179.035156 C 209.632812 180.597656 208.546875 182.132812 207.429688 183.644531 C 206.308594 185.15625 205.152344 186.636719 203.957031 188.089844 C 202.765625 189.542969 201.539062 190.96875 200.273438 192.363281 C 199.011719 193.753906 197.714844 195.117188 196.386719 196.445312 C 195.054688 197.777344 193.695312 199.070312 192.300781 200.335938 C 190.90625 201.597656 189.484375 202.824219 188.03125 204.019531 C 186.578125 205.210938 185.09375 206.367188 183.585938 207.488281 C 182.074219 208.609375 180.539062 209.691406 178.972656 210.734375 C 177.410156 211.78125 175.820312 212.785156 174.207031 213.753906 C 172.597656 214.71875 170.960938 215.648438 169.300781 216.53125 C 167.644531 217.417969 165.964844 218.265625 164.265625 219.070312 C 162.5625 219.871094 160.84375 220.636719 159.109375 221.355469 C 157.371094 222.074219 155.617188 222.75 153.847656 223.382812 C 152.074219 224.019531 150.289062 224.605469 148.492188 225.152344 C 146.691406 225.699219 144.878906 226.199219 143.054688 226.65625 C 141.230469 227.113281 139.398438 227.527344 137.550781 227.894531 C 135.707031 228.261719 133.855469 228.582031 131.996094 228.859375 C 130.136719 229.132812 128.269531 229.363281 126.398438 229.546875 C 124.527344 229.730469 122.652344 229.871094 120.773438 229.960938 C 118.894531 230.054688 117.015625 230.101562 115.136719 230.101562 C 113.253906 230.101562 111.375 230.054688 109.496094 229.960938 C 107.617188 229.871094 105.746094 229.730469 103.871094 229.546875 C 102 229.363281 100.136719 229.132812 98.273438 228.855469 C 96.414062 228.582031 94.5625 228.261719 92.71875 227.894531 C 90.875 227.527344 89.039062 227.113281 87.214844 226.65625 C 85.390625 226.199219 83.578125 225.699219 81.78125 225.152344 C 79.980469 224.605469 78.195312 224.019531 76.425781 223.382812 C 74.65625 222.75 72.898438 222.074219 71.164062 221.355469 C 69.425781 220.632812 67.707031 219.871094 66.007812 219.070312 C 64.308594 218.265625 62.628906 217.417969 60.96875 216.53125 C 59.3125 215.648438 57.675781 214.71875 56.0625 213.753906 C 54.449219 212.785156 52.859375 211.78125 51.296875 210.734375 C 49.734375 209.691406 48.195312 208.609375 46.6875 207.488281 C 45.175781 206.367188 43.695312 205.210938 42.238281 204.019531 C 40.785156 202.824219 39.363281 201.597656 37.96875 200.335938 C 36.574219 199.070312 35.214844 197.777344 33.886719 196.445312 C 32.554688 195.117188 31.257812 193.753906 29.996094 192.363281 C 28.734375 190.96875 27.503906 189.542969 26.3125 188.089844 C 25.121094 186.636719 23.960938 185.15625 22.84375 183.644531 C 21.722656 182.132812 20.640625 180.597656 19.59375 179.035156 C 18.550781 177.46875 17.542969 175.882812 16.578125 174.269531 C 15.609375 172.65625 14.683594 171.019531 13.796875 169.363281 C 12.910156 167.703125 12.066406 166.023438 11.261719 164.324219 C 10.457031 162.625 9.695312 160.90625 8.976562 159.167969 C 8.257812 157.429688 7.582031 155.675781 6.945312 153.90625 C 6.3125 152.136719 5.722656 150.351562 5.175781 148.550781 C 4.632812 146.75 4.128906 144.9375 3.671875 143.117188 C 3.214844 141.292969 2.804688 139.457031 2.4375 137.613281 C 2.070312 135.769531 1.75 133.914062 1.472656 132.054688 C 1.199219 130.195312 0.96875 128.328125 0.78125 126.457031 C 0.597656 124.585938 0.460938 122.710938 0.367188 120.832031 C 0.277344 118.957031 0.230469 117.074219 0.230469 115.195312 C 0.230469 113.316406 0.277344 111.4375 0.367188 109.558594 C 0.460938 107.679688 0.597656 105.804688 0.78125 103.933594 C 0.96875 102.0625 1.199219 100.195312 1.472656 98.335938 C 1.75 96.476562 2.070312 94.621094 2.4375 92.777344 C 2.804688 90.933594 3.214844 89.101562 3.671875 87.277344 C 4.128906 85.453125 4.632812 83.640625 5.175781 81.839844 C 5.722656 80.039062 6.3125 78.253906 6.945312 76.484375 C 7.582031 74.714844 8.257812 72.960938 8.976562 71.222656 C 9.695312 69.484375 10.457031 67.765625 11.261719 66.066406 C 12.066406 64.367188 12.910156 62.6875 13.796875 61.03125 C 14.683594 59.371094 15.609375 57.734375 16.578125 56.121094 C 17.542969 54.507812 18.550781 52.921875 19.59375 51.355469 C 20.640625 49.792969 21.722656 48.257812 22.84375 46.746094 C 23.960938 45.234375 25.121094 43.753906 26.3125 42.300781 C 27.503906 40.847656 28.734375 39.421875 29.996094 38.03125 C 31.257812 36.636719 32.554688 35.273438 33.886719 33.945312 C 35.214844 32.613281 36.574219 31.320312 37.96875 30.054688 C 39.363281 28.792969 40.785156 27.566406 42.238281 26.371094 C 43.695312 25.179688 45.175781 24.023438 46.6875 22.902344 C 48.195312 21.78125 49.734375 20.699219 51.296875 19.65625 C 52.859375 18.609375 54.449219 17.605469 56.0625 16.636719 C 57.675781 15.671875 59.3125 14.746094 60.96875 13.859375 C 62.628906 12.972656 64.308594 12.125 66.007812 11.320312 C 67.707031 10.519531 69.425781 9.757812 71.164062 9.035156 C 72.898438 8.316406 74.65625 7.640625 76.425781 7.007812 C 78.195312 6.375 79.980469 5.785156 81.78125 5.238281 C 83.578125 4.691406 85.390625 4.191406 87.214844 3.734375 C 89.039062 3.277344 90.875 2.863281 92.71875 2.496094 C 94.5625 2.128906 96.414062 1.808594 98.273438 1.535156 C 100.136719 1.257812 102 1.027344 103.871094 0.84375 C 105.746094 0.660156 107.617188 0.519531 109.496094 0.429688 C 111.375 0.335938 113.253906 0.289062 115.136719 0.289062 C 117.015625 0.289062 118.894531 0.335938 120.773438 0.429688 C 122.652344 0.519531 124.527344 0.660156 126.398438 0.84375 C 128.269531 1.027344 130.136719 1.257812 131.996094 1.535156 C 133.855469 1.808594 135.707031 2.128906 137.550781 2.496094 C 139.398438 2.863281 141.230469 3.277344 143.054688 3.734375 C 144.878906 4.191406 146.691406 4.691406 148.492188 5.238281 C 150.289062 5.785156 152.074219 6.375 153.847656 7.007812 C 155.617188 7.640625 157.371094 8.316406 159.109375 9.035156 C 160.84375 9.757812 162.5625 10.519531 164.265625 11.320312 C 165.964844 12.125 167.644531 12.972656 169.300781 13.859375 C 170.960938 14.746094 172.597656 15.671875 174.207031 16.636719 C 175.820312 17.605469 177.410156 18.609375 178.972656 19.65625 C 180.539062 20.699219 182.074219 21.78125 183.585938 22.902344 C 185.09375 24.023438 186.578125 25.179688 188.03125 26.371094 C 189.484375 27.566406 190.90625 28.792969 192.300781 30.054688 C 193.695312 31.320312 195.054688 32.613281 196.386719 33.945312 C 197.714844 35.273438 199.011719 36.636719 200.273438 38.03125 C 201.539062 39.421875 202.765625 40.847656 203.957031 42.300781 C 205.152344 43.753906 206.308594 45.234375 207.429688 46.746094 C 208.546875 48.257812 209.632812 49.792969 210.675781 51.355469 C 211.722656 52.921875 212.726562 54.507812 213.691406 56.121094 C 214.660156 57.734375 215.585938 59.371094 216.472656 61.03125 C 217.359375 62.6875 218.203125 64.367188 219.007812 66.066406 C 219.8125 67.765625 220.574219 69.484375 221.292969 71.222656 C 222.015625 72.960938 222.691406 74.714844 223.324219 76.484375 C 223.957031 78.253906 224.546875 80.039062 225.09375 81.839844 C 225.640625 83.640625 226.140625 85.453125 226.597656 87.277344 C 227.054688 89.101562 227.464844 90.933594 227.832031 92.777344 C 228.199219 94.621094 228.519531 96.476562 228.796875 98.335938 C 229.074219 100.195312 229.304688 102.0625 229.488281 103.933594 C 229.671875 105.804688 229.808594 107.679688 229.902344 109.558594 C 229.996094 111.4375 230.042969 113.316406 230.042969 115.195312 Z M 230.042969 115.195312 " fill-opacity="1" fill-rule="nonzero"/><path fill="#ffffff" d="M 115.136719 230.332031 C 84.386719 230.332031 55.476562 218.335938 33.734375 196.59375 C 11.996094 174.855469 0 145.945312 0 115.195312 C 0 84.445312 11.996094 55.535156 33.734375 33.796875 C 55.476562 12.054688 84.386719 0.0585938 115.136719 0.0585938 C 145.882812 0.0585938 174.792969 12.054688 196.535156 33.796875 C 218.273438 55.535156 230.269531 84.445312 230.269531 115.195312 C 230.269531 145.945312 218.273438 174.855469 196.535156 196.59375 C 174.792969 218.335938 145.882812 230.332031 115.136719 230.332031 Z M 115.136719 6.953125 C 86.226562 6.953125 59.0625 18.214844 38.609375 38.667969 C 18.15625 59.121094 6.894531 86.285156 6.894531 115.195312 C 6.894531 144.105469 18.15625 171.269531 38.609375 191.722656 C 59.0625 212.175781 86.226562 223.4375 115.136719 223.4375 C 144.046875 223.4375 171.210938 212.175781 191.664062 191.722656 C 212.117188 171.269531 223.375 144.105469 223.375 115.195312 C 223.375 86.285156 212.117188 59.121094 191.664062 38.667969 C 171.210938 18.214844 144.046875 6.953125 115.136719 6.953125 Z M 115.136719 6.953125 " fill-opacity="1" fill-rule="nonzero"/></g><path fill="#ffffff" d="M 139.90625 212.722656 C 139.433594 212.722656 138.984375 212.632812 138.550781 212.453125 C 138.117188 212.273438 137.734375 212.015625 137.402344 211.683594 C 137.070312 211.355469 136.816406 210.972656 136.636719 210.539062 C 136.457031 210.105469 136.367188 209.652344 136.367188 209.183594 L 136.367188 195.03125 C 136.367188 194.558594 136.457031 194.109375 136.636719 193.675781 C 136.816406 193.242188 137.070312 192.859375 137.402344 192.527344 C 137.734375 192.195312 138.117188 191.941406 138.550781 191.761719 C 138.984375 191.582031 139.433594 191.492188 139.90625 191.492188 C 140.375 191.492188 140.824219 191.582031 141.257812 191.761719 C 141.691406 191.941406 142.074219 192.195312 142.40625 192.527344 C 142.738281 192.859375 142.996094 193.242188 143.171875 193.675781 C 143.351562 194.109375 143.441406 194.558594 143.441406 195.03125 L 143.441406 205.566406 C 159.226562 204.859375 179.90625 199.550781 194.375 186.308594 C 198.355469 182.472656 201.945312 178.304688 205.144531 173.796875 C 208.339844 169.289062 211.089844 164.523438 213.394531 159.496094 C 215.695312 154.472656 217.511719 149.277344 218.839844 143.914062 C 220.167969 138.550781 220.984375 133.109375 221.289062 127.589844 L 221.289062 110.105469 C 221.289062 109.636719 221.378906 109.1875 221.558594 108.753906 C 221.738281 108.320312 221.992188 107.9375 222.324219 107.605469 C 222.65625 107.273438 223.039062 107.015625 223.472656 106.835938 C 223.90625 106.65625 224.359375 106.566406 224.828125 106.566406 C 225.296875 106.566406 225.75 106.65625 226.183594 106.835938 C 226.617188 107.015625 227 107.273438 227.328125 107.605469 C 227.660156 107.9375 227.917969 108.320312 228.097656 108.753906 C 228.277344 109.1875 228.367188 109.636719 228.367188 110.105469 L 228.367188 127.796875 C 228.203125 130.789062 227.898438 133.765625 227.457031 136.726562 C 227.011719 139.6875 226.429688 142.621094 225.710938 145.527344 C 224.992188 148.433594 224.140625 151.300781 223.152344 154.125 C 222.164062 156.953125 221.046875 159.726562 219.796875 162.449219 C 218.550781 165.171875 217.175781 167.828125 215.679688 170.421875 C 214.183594 173.011719 212.566406 175.53125 210.832031 177.96875 C 209.097656 180.410156 207.253906 182.765625 205.296875 185.035156 C 203.34375 187.300781 201.285156 189.472656 199.128906 191.546875 C 182.078125 207.15625 157.351562 212.722656 139.90625 212.722656 Z M 139.90625 212.722656 " fill-opacity="1" fill-rule="nonzero"/><path fill="#ffffff" d="M 207.179688 131.335938 C 206.738281 131.335938 206.316406 131.257812 205.90625 131.101562 C 205.5 130.941406 205.132812 130.714844 204.804688 130.421875 C 204.480469 130.128906 204.21875 129.785156 204.023438 129.394531 C 203.824219 129.003906 203.703125 128.589844 203.660156 128.152344 C 203.269531 124.109375 202.511719 120.132812 201.378906 116.230469 C 200.246094 112.328125 198.761719 108.5625 196.925781 104.9375 C 195.09375 101.3125 192.9375 97.886719 190.464844 94.664062 C 187.988281 91.4375 185.238281 88.472656 182.210938 85.761719 C 179.484375 83.539062 176.59375 81.550781 173.542969 79.796875 C 170.488281 78.046875 167.316406 76.554688 164.019531 75.324219 C 160.722656 74.089844 157.351562 73.132812 153.898438 72.453125 C 150.445312 71.773438 146.960938 71.378906 143.441406 71.269531 L 143.441406 81.796875 C 143.441406 82.496094 143.253906 83.140625 142.871094 83.726562 C 142.492188 84.3125 141.980469 84.746094 141.34375 85.03125 C 140.707031 85.3125 140.042969 85.402344 139.351562 85.292969 C 138.660156 85.183594 138.058594 84.894531 137.539062 84.425781 L 102.152344 52.582031 C 101.371094 51.878906 100.980469 51.003906 100.980469 49.953125 L 100.980469 35.796875 C 100.980469 35.328125 101.070312 34.878906 101.25 34.445312 C 101.429688 34.011719 101.6875 33.628906 102.019531 33.296875 C 102.351562 32.964844 102.730469 32.707031 103.164062 32.53125 C 103.597656 32.351562 104.050781 32.261719 104.519531 32.261719 C 104.988281 32.261719 105.441406 32.351562 105.875 32.53125 C 106.308594 32.707031 106.691406 32.964844 107.023438 33.296875 C 107.355469 33.628906 107.609375 34.011719 107.789062 34.445312 C 107.96875 34.878906 108.058594 35.328125 108.058594 35.796875 L 108.058594 48.378906 L 136.367188 73.855469 L 136.367188 67.644531 C 136.367188 67.175781 136.457031 66.722656 136.636719 66.289062 C 136.816406 65.855469 137.070312 65.472656 137.402344 65.144531 C 137.734375 64.8125 138.117188 64.554688 138.550781 64.375 C 138.984375 64.195312 139.433594 64.105469 139.90625 64.105469 C 144.144531 64.042969 148.355469 64.351562 152.542969 65.027344 C 156.726562 65.703125 160.820312 66.734375 164.824219 68.128906 C 168.832031 69.519531 172.683594 71.25 176.386719 73.316406 C 180.085938 75.382812 183.582031 77.753906 186.867188 80.433594 C 190.230469 83.4375 193.285156 86.726562 196.03125 90.300781 C 198.78125 93.875 201.171875 97.671875 203.210938 101.695312 C 205.25 105.714844 206.898438 109.890625 208.160156 114.21875 C 209.417969 118.550781 210.265625 122.957031 210.703125 127.445312 C 210.75 127.914062 210.710938 128.371094 210.574219 128.824219 C 210.441406 129.273438 210.226562 129.683594 209.929688 130.046875 C 209.632812 130.414062 209.277344 130.707031 208.863281 130.929688 C 208.449219 131.15625 208.007812 131.289062 207.539062 131.335938 C 207.417969 131.335938 207.296875 131.335938 207.179688 131.335938 Z M 207.179688 131.335938 " fill-opacity="1" fill-rule="nonzero"/><g clip-path="url(#356f0f29ba)"><path fill="#ffffff" d="M 145.542969 198.566406 C 143.570312 198.566406 141.597656 198.488281 139.625 198.335938 C 139.179688 198.300781 138.753906 198.1875 138.351562 197.992188 C 137.949219 197.796875 137.59375 197.539062 137.289062 197.207031 C 136.984375 196.878906 136.753906 196.507812 136.589844 196.089844 C 136.429688 195.671875 136.347656 195.242188 136.347656 194.792969 C 136.351562 194.34375 136.433594 193.914062 136.597656 193.496094 C 136.765625 193.082031 137 192.710938 137.308594 192.382812 C 137.613281 192.058594 137.96875 191.800781 138.375 191.609375 C 138.777344 191.414062 139.203125 191.304688 139.648438 191.273438 C 141.976562 191.101562 144.285156 190.808594 146.582031 190.402344 C 148.878906 189.992188 151.148438 189.46875 153.390625 188.832031 C 155.636719 188.195312 157.839844 187.441406 160.007812 186.582031 C 162.175781 185.71875 164.292969 184.75 166.359375 183.671875 C 168.429688 182.59375 170.4375 181.417969 172.386719 180.136719 C 174.335938 178.855469 176.214844 177.480469 178.023438 176.007812 C 179.835938 174.535156 181.566406 172.976562 183.214844 171.332031 C 184.867188 169.683594 186.429688 167.957031 187.90625 166.152344 C 190.785156 162.65625 193.304688 158.921875 195.46875 154.941406 C 197.628906 150.964844 199.390625 146.816406 200.753906 142.5 C 202.117188 138.183594 203.058594 133.777344 203.578125 129.277344 C 204.09375 124.78125 204.179688 120.273438 203.832031 115.761719 C 203.539062 111.558594 202.847656 107.421875 201.757812 103.351562 C 200.664062 99.28125 199.191406 95.355469 197.339844 91.570312 C 195.484375 87.785156 193.285156 84.214844 190.742188 80.855469 C 188.195312 77.496094 185.351562 74.414062 182.210938 71.609375 C 179.484375 69.382812 176.59375 67.394531 173.542969 65.644531 C 170.488281 63.894531 167.316406 62.402344 164.019531 61.167969 C 160.722656 59.9375 157.351562 58.980469 153.898438 58.300781 C 150.445312 57.621094 146.960938 57.226562 143.441406 57.113281 L 143.441406 67.644531 C 143.441406 68.34375 143.253906 68.984375 142.871094 69.570312 C 142.492188 70.15625 141.980469 70.59375 141.34375 70.875 C 140.707031 71.160156 140.042969 71.246094 139.351562 71.140625 C 138.660156 71.03125 138.058594 70.742188 137.539062 70.273438 L 102.152344 38.425781 C 101.96875 38.261719 101.804688 38.078125 101.65625 37.878906 C 101.511719 37.675781 101.390625 37.464844 101.289062 37.238281 C 101.1875 37.011719 101.113281 36.777344 101.058594 36.535156 C 101.007812 36.292969 100.984375 36.046875 100.984375 35.796875 C 100.984375 35.550781 101.007812 35.304688 101.058594 35.0625 C 101.113281 34.820312 101.1875 34.585938 101.289062 34.359375 C 101.390625 34.132812 101.511719 33.917969 101.65625 33.71875 C 101.804688 33.519531 101.96875 33.335938 102.152344 33.167969 L 137.539062 1.324219 C 138.058594 0.855469 138.660156 0.566406 139.351562 0.457031 C 140.042969 0.347656 140.707031 0.4375 141.34375 0.71875 C 141.980469 1.003906 142.492188 1.441406 142.871094 2.027344 C 143.253906 2.613281 143.441406 3.253906 143.441406 3.953125 L 143.441406 14.828125 C 146.425781 15.136719 149.390625 15.585938 152.332031 16.179688 C 155.273438 16.769531 158.179688 17.5 161.050781 18.367188 C 163.921875 19.234375 166.746094 20.238281 169.519531 21.375 C 172.296875 22.511719 175.011719 23.78125 177.667969 25.175781 C 180.320312 26.574219 182.902344 28.09375 185.414062 29.738281 C 187.921875 31.378906 190.347656 33.140625 192.691406 35.015625 C 195.035156 36.890625 197.28125 38.871094 199.433594 40.960938 C 201.585938 43.050781 203.632812 45.238281 205.578125 47.519531 C 207.5625 49.863281 209.433594 52.292969 211.183594 54.816406 C 212.933594 57.335938 214.5625 59.933594 216.066406 62.613281 C 217.566406 65.289062 218.9375 68.03125 220.179688 70.839844 C 221.417969 73.648438 222.519531 76.507812 223.484375 79.421875 C 224.453125 82.335938 225.273438 85.292969 225.957031 88.285156 C 226.640625 91.277344 227.175781 94.296875 227.570312 97.339844 C 227.960938 100.386719 228.207031 103.441406 228.308594 106.511719 C 228.40625 109.578125 228.359375 112.644531 228.164062 115.707031 C 228.007812 118.617188 227.710938 121.515625 227.273438 124.394531 C 226.835938 127.277344 226.261719 130.132812 225.550781 132.957031 C 224.835938 135.785156 223.988281 138.570312 223.007812 141.316406 C 222.027344 144.058594 220.914062 146.75 219.671875 149.386719 C 218.433594 152.023438 217.066406 154.597656 215.578125 157.101562 C 214.085938 159.605469 212.480469 162.035156 210.757812 164.386719 C 209.03125 166.734375 207.199219 168.996094 205.257812 171.171875 C 203.3125 173.34375 201.269531 175.417969 199.128906 177.394531 C 195.507812 180.734375 191.613281 183.71875 187.441406 186.335938 C 183.269531 188.957031 178.894531 191.171875 174.3125 192.984375 C 169.730469 194.792969 165.019531 196.167969 160.183594 197.109375 C 155.347656 198.046875 150.46875 198.53125 145.542969 198.566406 Z M 139.90625 49.953125 C 144.144531 49.890625 148.355469 50.195312 152.542969 50.871094 C 156.726562 51.546875 160.820312 52.582031 164.824219 53.972656 C 168.832031 55.367188 172.683594 57.09375 176.386719 59.160156 C 180.085938 61.226562 183.582031 63.601562 186.867188 66.277344 C 190.351562 69.386719 193.507812 72.804688 196.332031 76.523438 C 199.15625 80.246094 201.597656 84.203125 203.652344 88.394531 C 205.710938 92.589844 207.347656 96.941406 208.5625 101.449219 C 209.777344 105.960938 210.546875 110.546875 210.871094 115.207031 C 211.257812 120.171875 211.164062 125.125 210.597656 130.074219 C 210.027344 135.023438 208.996094 139.871094 207.496094 144.621094 C 205.996094 149.367188 204.058594 153.933594 201.683594 158.308594 C 199.308594 162.6875 196.539062 166.796875 193.375 170.640625 C 190.703125 173.917969 187.777344 176.945312 184.59375 179.726562 C 188.0625 177.46875 191.324219 174.945312 194.375 172.152344 C 198.308594 168.480469 201.863281 164.46875 205.03125 160.117188 C 208.199219 155.765625 210.929688 151.15625 213.21875 146.28125 C 215.507812 141.410156 217.3125 136.367188 218.640625 131.152344 C 219.964844 125.933594 220.785156 120.640625 221.101562 115.265625 C 221.265625 112.429688 221.296875 109.589844 221.195312 106.75 C 221.089844 103.910156 220.855469 101.082031 220.484375 98.265625 C 220.113281 95.449219 219.609375 92.65625 218.976562 89.886719 C 218.339844 87.117188 217.574219 84.382812 216.683594 81.6875 C 215.789062 78.988281 214.769531 76.339844 213.625 73.738281 C 212.480469 71.136719 211.21875 68.597656 209.835938 66.113281 C 208.449219 63.632812 206.953125 61.222656 205.339844 58.882812 C 203.726562 56.542969 202.007812 54.285156 200.183594 52.105469 L 200.160156 52.085938 C 198.285156 49.875 196.300781 47.765625 194.210938 45.753906 C 192.125 43.742188 189.941406 41.839844 187.660156 40.046875 C 185.382812 38.253906 183.019531 36.582031 180.574219 35.023438 C 178.125 33.46875 175.609375 32.039062 173.015625 30.734375 C 170.425781 29.429688 167.777344 28.257812 165.070312 27.21875 C 162.363281 26.179688 159.613281 25.28125 156.816406 24.515625 C 154.015625 23.753906 151.1875 23.132812 148.328125 22.652344 C 145.46875 22.171875 142.59375 21.835938 139.699219 21.644531 C 139.25 21.617188 138.816406 21.511719 138.410156 21.320312 C 138 21.128906 137.640625 20.867188 137.328125 20.539062 C 137.019531 20.210938 136.78125 19.835938 136.613281 19.414062 C 136.449219 18.996094 136.367188 18.558594 136.367188 18.105469 L 136.367188 11.894531 L 109.828125 35.796875 L 136.367188 59.699219 L 136.367188 53.492188 C 136.367188 53.023438 136.457031 52.570312 136.636719 52.136719 C 136.816406 51.703125 137.070312 51.320312 137.402344 50.988281 C 137.734375 50.65625 138.117188 50.402344 138.550781 50.222656 C 138.984375 50.042969 139.433594 49.953125 139.90625 49.953125 Z M 139.90625 49.953125 " fill-opacity="1" fill-rule="nonzero"/></g><path fill="#ffffff" d="M 90.367188 226.875 C 89.863281 226.875 89.382812 226.773438 88.925781 226.566406 C 88.289062 226.285156 87.777344 225.847656 87.398438 225.261719 C 87.019531 224.675781 86.828125 224.035156 86.828125 223.335938 L 86.828125 212.460938 C 83.84375 212.152344 80.878906 211.703125 77.9375 211.113281 C 74.996094 210.519531 72.089844 209.792969 69.214844 208.921875 C 66.34375 208.054688 63.519531 207.050781 60.742188 205.914062 C 57.96875 204.773438 55.25 203.507812 52.597656 202.109375 C 49.941406 200.710938 47.359375 199.191406 44.847656 197.546875 C 42.335938 195.902344 39.910156 194.144531 37.570312 192.265625 C 35.226562 190.390625 32.980469 188.410156 30.828125 186.316406 C 28.671875 184.226562 26.625 182.039062 24.679688 179.753906 C 21.039062 175.402344 17.796875 170.765625 14.960938 165.847656 C 12.125 160.929688 9.738281 155.804688 7.796875 150.46875 C 5.855469 145.136719 4.386719 139.671875 3.398438 134.082031 C 2.410156 128.492188 1.910156 122.859375 1.90625 117.183594 L 1.90625 103.03125 C 1.90625 102.558594 1.996094 102.109375 2.175781 101.675781 C 2.351562 101.242188 2.609375 100.859375 2.941406 100.527344 C 3.273438 100.195312 3.65625 99.941406 4.089844 99.761719 C 4.523438 99.582031 4.972656 99.492188 5.441406 99.492188 C 5.914062 99.492188 6.363281 99.582031 6.796875 99.761719 C 7.230469 99.941406 7.613281 100.195312 7.945312 100.527344 C 8.277344 100.859375 8.53125 101.242188 8.710938 101.675781 C 8.890625 102.109375 8.980469 102.558594 8.980469 103.03125 L 8.980469 117.183594 C 8.984375 122.445312 9.445312 127.667969 10.363281 132.847656 C 11.277344 138.03125 12.636719 143.09375 14.433594 148.039062 C 16.234375 152.984375 18.449219 157.734375 21.078125 162.292969 C 23.707031 166.851562 26.710938 171.148438 30.089844 175.183594 C 31.964844 177.394531 33.949219 179.503906 36.039062 181.519531 C 38.128906 183.53125 40.3125 185.433594 42.589844 187.230469 C 44.871094 189.023438 47.234375 190.699219 49.683594 192.253906 C 52.128906 193.8125 54.648438 195.246094 57.238281 196.550781 C 59.832031 197.855469 62.480469 199.027344 65.1875 200.066406 C 67.898438 201.105469 70.648438 202.007812 73.449219 202.769531 C 76.246094 203.535156 79.078125 204.15625 81.9375 204.636719 C 84.800781 205.117188 87.675781 205.453125 90.570312 205.644531 C 91.023438 205.671875 91.453125 205.78125 91.863281 205.972656 C 92.273438 206.160156 92.632812 206.421875 92.941406 206.75 C 93.25 207.082031 93.488281 207.453125 93.65625 207.875 C 93.824219 208.296875 93.90625 208.730469 93.90625 209.183594 L 93.90625 215.394531 L 122.210938 189.917969 L 122.210938 177.335938 C 122.210938 176.867188 122.300781 176.417969 122.480469 175.984375 C 122.660156 175.550781 122.917969 175.167969 123.25 174.835938 C 123.582031 174.503906 123.964844 174.246094 124.398438 174.066406 C 124.832031 173.886719 125.28125 173.796875 125.75 173.796875 C 126.21875 173.796875 126.671875 173.886719 127.105469 174.066406 C 127.539062 174.246094 127.921875 174.503906 128.253906 174.835938 C 128.585938 175.167969 128.839844 175.550781 129.019531 175.984375 C 129.199219 176.417969 129.289062 176.867188 129.289062 177.335938 L 129.289062 191.492188 C 129.289062 192.542969 128.898438 193.417969 128.117188 194.121094 L 92.734375 225.964844 C 92.0625 226.574219 91.273438 226.875 90.367188 226.875 Z M 90.367188 226.875 " fill-opacity="1" fill-rule="nonzero"/><path fill="#ffffff" d="M 23 103.03125 C 22.894531 103.03125 22.785156 103.03125 22.675781 103.03125 C 22.207031 102.988281 21.765625 102.855469 21.351562 102.636719 C 20.9375 102.417969 20.578125 102.128906 20.277344 101.769531 C 19.976562 101.410156 19.757812 101.003906 19.617188 100.554688 C 19.480469 100.109375 19.429688 99.652344 19.472656 99.183594 C 19.828125 95.304688 20.46875 91.472656 21.398438 87.691406 C 22.324219 83.910156 23.523438 80.214844 25 76.609375 C 26.476562 73.007812 28.210938 69.53125 30.207031 66.1875 C 32.199219 62.839844 34.429688 59.660156 36.894531 56.648438 C 39.980469 52.855469 43.398438 49.390625 47.144531 46.253906 C 50.894531 43.121094 54.910156 40.371094 59.1875 38.003906 C 63.464844 35.640625 67.925781 33.703125 72.578125 32.195312 C 77.226562 30.691406 81.976562 29.636719 86.828125 29.042969 L 86.828125 21.644531 L 83.289062 21.644531 C 82.820312 21.644531 82.367188 21.554688 81.933594 21.375 C 81.5 21.195312 81.117188 20.941406 80.789062 20.609375 C 80.457031 20.277344 80.199219 19.894531 80.019531 19.460938 C 79.839844 19.027344 79.75 18.574219 79.75 18.105469 C 79.75 17.636719 79.839844 17.1875 80.019531 16.753906 C 80.199219 16.320312 80.457031 15.9375 80.789062 15.605469 C 81.117188 15.273438 81.5 15.015625 81.933594 14.835938 C 82.367188 14.65625 82.820312 14.566406 83.289062 14.566406 L 90.367188 14.566406 C 90.835938 14.566406 91.285156 14.65625 91.71875 14.835938 C 92.152344 15.015625 92.535156 15.273438 92.867188 15.605469 C 93.199219 15.9375 93.457031 16.320312 93.636719 16.753906 C 93.816406 17.1875 93.90625 17.636719 93.90625 18.105469 L 93.90625 32.261719 C 93.90625 32.707031 93.824219 33.140625 93.660156 33.558594 C 93.5 33.976562 93.265625 34.347656 92.960938 34.675781 C 92.65625 35.003906 92.300781 35.265625 91.898438 35.460938 C 91.492188 35.652344 91.066406 35.765625 90.621094 35.796875 C 85.957031 36.191406 81.375 37.042969 76.882812 38.355469 C 72.390625 39.667969 68.070312 41.410156 63.925781 43.585938 C 59.78125 45.765625 55.894531 48.332031 52.265625 51.289062 C 48.632812 54.242188 45.335938 57.53125 42.363281 61.148438 C 40.121094 63.886719 38.09375 66.78125 36.28125 69.820312 C 34.46875 72.863281 32.890625 76.023438 31.546875 79.300781 C 30.207031 82.578125 29.113281 85.933594 28.269531 89.375 C 27.429688 92.8125 26.84375 96.296875 26.523438 99.824219 C 26.480469 100.261719 26.359375 100.679688 26.164062 101.070312 C 25.96875 101.464844 25.707031 101.8125 25.382812 102.105469 C 25.054688 102.402344 24.6875 102.632812 24.277344 102.789062 C 23.867188 102.949219 23.441406 103.027344 23 103.03125 Z M 23 103.03125 " fill-opacity="1" fill-rule="nonzero"/><path fill="#ffffff" d="M 90.367188 212.722656 C 89.863281 212.722656 89.382812 212.621094 88.925781 212.414062 C 88.289062 212.128906 87.777344 211.695312 87.398438 211.109375 C 87.019531 210.523438 86.828125 209.882812 86.828125 209.183594 L 86.828125 198.304688 C 83.84375 198 80.882812 197.550781 77.941406 196.957031 C 75 196.367188 72.09375 195.636719 69.21875 194.769531 C 66.347656 193.902344 63.523438 192.898438 60.75 191.761719 C 57.972656 190.625 55.257812 189.355469 52.601562 187.960938 C 49.949219 186.5625 47.367188 185.042969 44.855469 183.398438 C 42.347656 181.757812 39.921875 179.996094 37.578125 178.121094 C 35.238281 176.246094 32.988281 174.265625 30.835938 172.175781 C 28.683594 170.085938 26.636719 167.898438 24.691406 165.613281 C 22.707031 163.273438 20.839844 160.839844 19.085938 158.320312 C 17.335938 155.800781 15.707031 153.199219 14.207031 150.523438 C 12.703125 147.847656 11.332031 145.105469 10.09375 142.296875 C 8.851562 139.488281 7.75 136.625 6.785156 133.710938 C 5.820312 130.796875 4.996094 127.84375 4.316406 124.851562 C 3.632812 121.859375 3.09375 118.839844 2.703125 115.792969 C 2.308594 112.75 2.0625 109.695312 1.964844 106.625 C 1.863281 103.558594 1.910156 100.492188 2.105469 97.429688 C 2.261719 94.515625 2.558594 91.621094 2.996094 88.738281 C 3.433594 85.855469 4.007812 83.003906 4.722656 80.175781 C 5.433594 77.351562 6.28125 74.566406 7.261719 71.820312 C 8.242188 69.074219 9.355469 66.382812 10.597656 63.746094 C 11.839844 61.109375 13.203125 58.539062 14.691406 56.035156 C 16.183594 53.527344 17.789062 51.101562 19.515625 48.75 C 21.238281 46.398438 23.070312 44.136719 25.015625 41.964844 C 26.957031 39.792969 29 37.71875 31.144531 35.742188 C 33.128906 33.902344 35.203125 32.171875 37.363281 30.546875 C 39.527344 28.917969 41.765625 27.40625 44.082031 26.011719 C 46.398438 24.613281 48.78125 23.335938 51.226562 22.183594 C 53.671875 21.03125 56.171875 20.003906 58.726562 19.105469 C 61.277344 18.207031 63.867188 17.441406 66.496094 16.808594 C 69.128906 16.171875 71.785156 15.675781 74.464844 15.3125 C 77.144531 14.953125 79.835938 14.726562 82.542969 14.640625 C 85.246094 14.554688 87.945312 14.605469 90.644531 14.792969 C 91.113281 14.796875 91.566406 14.886719 92 15.066406 C 92.433594 15.25 92.8125 15.507812 93.144531 15.839844 C 93.476562 16.171875 93.730469 16.554688 93.90625 16.988281 C 94.085938 17.425781 94.171875 17.875 94.171875 18.34375 C 94.171875 18.8125 94.078125 19.265625 93.898438 19.699219 C 93.714844 20.132812 93.460938 20.511719 93.125 20.84375 C 92.792969 21.175781 92.410156 21.429688 91.976562 21.605469 C 91.542969 21.785156 91.089844 21.871094 90.621094 21.871094 C 88.296875 22.046875 85.984375 22.335938 83.6875 22.746094 C 81.390625 23.152344 79.121094 23.675781 76.878906 24.3125 C 74.636719 24.953125 72.429688 25.703125 70.265625 26.566406 C 68.097656 27.425781 65.980469 28.398438 63.910156 29.472656 C 61.84375 30.550781 59.832031 31.730469 57.882812 33.011719 C 55.933594 34.289062 54.054688 35.667969 52.246094 37.136719 C 50.4375 38.609375 48.707031 40.167969 47.054688 41.816406 C 45.402344 43.460938 43.839844 45.1875 42.363281 46.996094 C 39.488281 50.488281 36.96875 54.222656 34.808594 58.199219 C 32.652344 62.179688 30.890625 66.324219 29.527344 70.640625 C 28.164062 74.953125 27.226562 79.359375 26.707031 83.855469 C 26.191406 88.351562 26.105469 92.855469 26.453125 97.367188 C 26.742188 101.570312 27.433594 105.707031 28.523438 109.777344 C 29.613281 113.847656 31.085938 117.777344 32.9375 121.5625 C 34.789062 125.347656 36.988281 128.917969 39.53125 132.277344 C 42.074219 135.636719 44.917969 138.71875 48.058594 141.527344 C 50.785156 143.753906 53.675781 145.742188 56.726562 147.492188 C 59.78125 149.246094 62.953125 150.738281 66.25 151.96875 C 69.546875 153.203125 72.921875 154.15625 76.371094 154.835938 C 79.824219 155.515625 83.308594 155.910156 86.828125 156.019531 L 86.828125 145.492188 C 86.828125 144.792969 87.019531 144.148438 87.398438 143.5625 C 87.78125 142.976562 88.289062 142.542969 88.925781 142.257812 C 89.566406 141.976562 90.230469 141.886719 90.917969 141.996094 C 91.609375 142.105469 92.214844 142.394531 92.734375 142.863281 L 128.117188 174.707031 C 128.300781 174.875 128.46875 175.058594 128.613281 175.257812 C 128.757812 175.457031 128.882812 175.671875 128.984375 175.898438 C 129.082031 176.125 129.160156 176.359375 129.210938 176.601562 C 129.261719 176.84375 129.289062 177.089844 129.289062 177.335938 C 129.289062 177.585938 129.261719 177.832031 129.210938 178.074219 C 129.160156 178.316406 129.082031 178.550781 128.984375 178.777344 C 128.882812 179.003906 128.757812 179.214844 128.613281 179.417969 C 128.46875 179.617188 128.300781 179.800781 128.117188 179.964844 L 92.734375 211.8125 C 92.0625 212.417969 91.273438 212.722656 90.367188 212.722656 Z M 45.675781 33.410156 C 42.207031 35.667969 38.949219 38.191406 35.894531 40.980469 C 31.960938 44.65625 28.410156 48.667969 25.238281 53.019531 C 22.070312 57.367188 19.339844 61.980469 17.050781 66.851562 C 14.765625 71.722656 12.957031 76.769531 11.628906 81.984375 C 10.304688 87.203125 9.484375 92.496094 9.167969 97.871094 C 9.003906 100.707031 8.972656 103.546875 9.078125 106.382812 C 9.179688 109.222656 9.417969 112.050781 9.789062 114.871094 C 10.160156 117.6875 10.660156 120.480469 11.296875 123.25 C 11.929688 126.019531 12.695312 128.753906 13.589844 131.449219 C 14.480469 134.148438 15.5 136.796875 16.644531 139.398438 C 17.789062 142 19.050781 144.539062 20.4375 147.019531 C 21.820312 149.503906 23.320312 151.914062 24.929688 154.253906 C 26.542969 156.59375 28.261719 158.851562 30.089844 161.027344 L 30.109375 161.050781 C 31.988281 163.261719 33.96875 165.371094 36.058594 167.382812 C 38.144531 169.394531 40.332031 171.296875 42.609375 173.089844 C 44.886719 174.882812 47.25 176.554688 49.699219 178.113281 C 52.144531 179.667969 54.664062 181.097656 57.253906 182.402344 C 59.84375 183.707031 62.492188 184.878906 65.199219 185.917969 C 67.90625 186.957031 70.660156 187.855469 73.457031 188.621094 C 76.253906 189.382812 79.082031 190.003906 81.941406 190.484375 C 84.800781 190.964844 87.679688 191.300781 90.570312 191.492188 C 91.023438 191.515625 91.453125 191.625 91.863281 191.816406 C 92.273438 192.007812 92.632812 192.269531 92.941406 192.597656 C 93.25 192.925781 93.488281 193.300781 93.65625 193.722656 C 93.824219 194.140625 93.90625 194.578125 93.90625 195.03125 L 93.90625 201.238281 L 120.460938 177.335938 L 93.90625 153.433594 L 93.90625 159.644531 C 93.90625 160.113281 93.816406 160.566406 93.636719 161 C 93.457031 161.433594 93.199219 161.816406 92.867188 162.148438 C 92.535156 162.480469 92.152344 162.734375 91.71875 162.914062 C 91.285156 163.09375 90.835938 163.183594 90.367188 163.183594 C 86.128906 163.246094 81.914062 162.941406 77.730469 162.265625 C 73.542969 161.589844 69.449219 160.554688 65.445312 159.164062 C 61.441406 157.769531 57.585938 156.042969 53.886719 153.976562 C 50.183594 151.910156 46.691406 149.535156 43.402344 146.855469 C 39.917969 143.746094 36.761719 140.332031 33.9375 136.613281 C 31.113281 132.890625 28.675781 128.933594 26.617188 124.742188 C 24.558594 120.546875 22.921875 116.195312 21.707031 111.683594 C 20.496094 107.175781 19.722656 102.589844 19.398438 97.929688 C 19.015625 92.964844 19.105469 88.007812 19.675781 83.0625 C 20.242188 78.113281 21.277344 73.265625 22.773438 68.515625 C 24.273438 63.765625 26.210938 59.203125 28.585938 54.828125 C 30.960938 50.449219 33.730469 46.339844 36.894531 42.492188 C 39.566406 39.21875 42.496094 36.191406 45.675781 33.410156 Z M 45.675781 33.410156 " fill-opacity="1" fill-rule="nonzero"/></svg>